<?xml version="1.0" standalone="no"?>
<!DOCTYPE svg PUBLIC "-//W3C//DTD SVG 20010904//EN"
 "http://www.w3.org/TR/2001/REC-SVG-20010904/DTD/svg10.dtd">
<svg version="1.0" xmlns="http://www.w3.org/2000/svg"
 width="158.000000pt" height="158.000000pt" viewBox="0 0 158.000000 158.000000"
 preserveAspectRatio="xMidYMid meet">
<metadata>
Created by potrace 1.14, written by Peter Selinger 2001-2017
</metadata>
<g transform="translate(0.000000,158.000000) scale(0.100000,-0.100000)"
fill="#000000" stroke="none">
<path d="M600 1227 c0 -38 30 -129 61 -183 15 -28 56 -77 89 -109 80 -76 93
-66 61 43 -33 112 -84 189 -165 250 -38 28 -46 28 -46 -1z"/>
<path d="M957 1210 c-67 -59 -138 -213 -111 -240 12 -12 84 55 117 108 32 50
62 151 50 163 -6 6 -27 -6 -56 -31z"/>
<path d="M10 763 c0 -5 21 -59 47 -120 39 -93 51 -113 68 -113 17 0 29 20 68
113 26 61 47 115 47 120 0 4 -11 7 -24 7 -20 0 -28 -11 -56 -80 -18 -44 -33
-80 -35 -80 -2 0 -17 36 -35 80 -28 69 -36 80 -56 80 -13 0 -24 -3 -24 -7z"/>
<path d="M289 763 c0 -4 -1 -57 -2 -118 0 -110 0 -110 24 -110 24 0 24 0 24
115 0 112 -1 115 -22 118 -13 2 -23 0 -24 -5z"/>
<path d="M390 651 l0 -121 63 0 c84 0 105 7 123 42 13 25 13 33 1 56 -7 16
-12 43 -10 62 7 58 -13 74 -101 78 l-76 4 0 -121z m130 48 c0 -11 -6 -19 -12
-20 -7 0 -22 -2 -32 -4 -25 -5 -41 5 -41 25 0 19 20 27 56 22 20 -3 29 -10 29
-23z m3 -81 c24 -18 7 -38 -34 -39 -52 -2 -57 0 -54 19 2 9 4 19 4 22 2 12 68
10 84 -2z"/>
<path d="M628 764 c-3 -5 -4 -58 -4 -119 1 -110 1 -110 26 -110 22 0 25 4 25
40 0 34 3 40 20 37 11 -2 35 -21 53 -43 50 -58 101 -53 57 6 -30 39 -30 39 -5
73 23 31 22 56 -3 92 -15 22 -26 25 -91 28 -40 2 -76 0 -78 -4z m132 -54 c27
-17 -1 -45 -45 -45 -34 0 -39 3 -42 28 -3 25 -1 27 34 27 21 0 45 -5 53 -10z"/>
<path d="M953 758 c-21 -35 -100 -218 -95 -222 14 -15 43 -3 56 22 12 23 21
28 60 29 42 2 47 0 61 -27 11 -21 23 -30 40 -30 14 0 25 2 25 5 0 3 -23 57
-51 120 -38 86 -56 115 -70 115 -10 0 -21 -6 -26 -12z m41 -104 c6 -18 2 -21
-19 -21 -29 0 -28 -2 -15 33 11 29 23 24 34 -12z"/>
<path d="M1130 649 c0 -119 0 -120 23 -117 20 3 22 8 22 71 0 37 2 67 6 67 3
0 29 -31 58 -70 77 -101 89 -97 93 34 4 129 2 138 -25 134 -20 -3 -22 -9 -21
-70 0 -38 -2 -68 -6 -68 -3 0 -29 32 -59 70 -33 43 -60 70 -72 70 -18 0 -19
-9 -19 -121z"/>
<path d="M1380 745 c0 -22 4 -25 35 -25 l35 0 0 -95 c0 -95 0 -95 25 -95 25 0
25 0 25 95 l0 95 35 0 c31 0 35 3 35 25 0 25 0 25 -95 25 -95 0 -95 0 -95 -25z"/>
<path d="M228 422 c-14 -2 -18 -13 -18 -43 0 -37 2 -39 30 -39 35 0 40 17 8
23 l-23 4 23 2 c12 0 22 5 22 10 0 5 -10 12 -22 14 l-23 4 23 2 c24 1 30 16
10 23 -7 2 -21 3 -30 0z"/>
<path d="M488 419 c-9 -6 -8 -10 5 -15 11 -4 17 -17 17 -35 0 -16 5 -29 10
-29 6 0 10 12 10 26 0 15 8 32 17 39 14 11 13 13 -15 17 -17 2 -37 1 -44 -3z"/>
<path d="M754 421 c-15 -10 -16 -83 -1 -77 6 3 20 9 29 12 19 7 33 38 24 53
-8 12 -42 20 -52 12z m36 -31 c0 -5 -4 -10 -9 -10 -6 0 -13 5 -16 10 -3 6 1
10 9 10 9 0 16 -4 16 -10z"/>
<path d="M855 421 c-15 -5 -20 -15 -20 -40 0 -19 6 -36 13 -38 6 -3 12 1 12 8
0 10 3 10 12 1 7 -7 18 -12 26 -12 11 0 12 3 3 14 -7 9 -8 17 -2 20 12 8 3 43
-12 49 -7 2 -21 1 -32 -2z m25 -31 c0 -5 -4 -10 -10 -10 -5 0 -10 5 -10 10 0
6 5 10 10 10 6 0 10 -4 10 -10z"/>
<path d="M952 414 c-38 -26 -22 -74 24 -74 45 0 58 50 19 76 -18 12 -24 11
-43 -2z m44 -43 c-9 -14 -33 -14 -41 -1 -4 6 -1 18 6 26 11 13 14 13 27 0 8
-8 11 -19 8 -25z"/>
<path d="M1053 421 c-4 -3 -8 -22 -8 -41 0 -32 3 -35 32 -38 24 -2 33 1 38 17
10 32 -3 58 -30 63 -13 3 -27 2 -32 -1z m47 -41 c0 -11 -7 -20 -15 -20 -8 0
-15 9 -15 20 0 11 7 20 15 20 8 0 15 -9 15 -20z"/>
<path d="M1204 416 c-6 -10 -9 -28 -6 -39 3 -14 1 -18 -9 -15 -8 2 -15 17 -17
31 -5 42 -24 32 -20 -10 3 -33 7 -38 30 -41 22 -3 29 2 33 21 4 14 5 36 3 48
-3 23 -4 23 -14 5z"/>
<path d="M1267 417 c-19 -14 -23 -36 -13 -59 10 -22 66 -25 66 -4 0 9 -8 12
-25 8 -21 -3 -25 0 -25 18 0 17 5 21 25 18 13 -2 25 1 25 7 2 15 -37 25 -53
12z"/>
<path d="M1358 418 c-10 -8 -10 -11 0 -15 6 -2 12 -18 12 -34 0 -16 5 -29 10
-29 10 0 14 14 11 38 -1 8 5 20 15 26 16 12 15 14 -9 18 -14 3 -32 1 -39 -4z"/>
<path d="M1453 423 c-20 -7 -15 -41 7 -48 11 -3 20 -11 20 -16 0 -6 -8 -6 -20
1 -16 9 -20 8 -20 -5 0 -10 10 -15 30 -15 24 0 30 4 30 21 0 12 -8 23 -20 26
-11 3 -17 9 -15 14 3 4 12 6 20 2 8 -3 15 -1 15 5 0 11 -30 21 -47 15z"/>
<path d="M100 379 c0 -28 4 -39 13 -36 6 2 11 10 10 16 -2 6 4 11 12 11 8 0
15 -7 15 -16 0 -9 6 -14 13 -11 16 5 16 77 0 77 -7 0 -13 -7 -13 -15 0 -8 -7
-15 -16 -15 -10 0 -14 6 -10 15 3 9 0 15 -9 15 -11 0 -15 -12 -15 -41z"/>
<path d="M316 384 c-19 -41 -16 -51 10 -36 12 7 25 7 37 0 26 -13 27 -9 10 35
-19 47 -35 47 -57 1z"/>
<path d="M414 383 c1 -34 4 -38 29 -41 30 -4 37 13 8 21 -13 3 -18 12 -16 31
2 16 -2 26 -10 26 -8 0 -12 -13 -11 -37z"/>
<path d="M583 380 c1 -26 6 -40 14 -40 7 0 12 6 11 13 -2 6 4 12 12 12 8 0 14
-6 12 -13 -1 -8 3 -12 10 -10 17 6 18 78 1 78 -7 0 -13 -7 -13 -15 0 -8 -7
-15 -15 -15 -8 0 -14 5 -12 11 1 6 -3 13 -9 16 -8 2 -12 -10 -11 -37z"/>
</g>
</svg>
